<?xml version="1.0" encoding="UTF-8" standalone="no" ?>
<!DOCTYPE svg PUBLIC "-//W3C//DTD SVG 1.1//EN" "http://www.w3.org/Graphics/SVG/1.1/DTD/svg11.dtd">
<svg xmlns="http://www.w3.org/2000/svg" xmlns:xlink="http://www.w3.org/1999/xlink" version="1.1" width="1080" height="1080" viewBox="0 0 1080 1080" xml:space="preserve">
<desc>Created with Fabric.js 5.2.4</desc>
<defs>
</defs>
<rect x="0" y="0" width="100%" height="100%" fill="transparent"></rect>
<g transform="matrix(1 0 0 1 540 540)" id="12edb5d0-9716-46dc-9b9d-7b59078a1f46"  >
</g>
<g transform="matrix(1 0 0 1 540 540)" id="d0f801f6-6b38-4a2c-aa3d-0be57fcfc1ca"  >
<rect style="stroke: none; stroke-width: 1; stroke-dasharray: none; stroke-linecap: butt; stroke-dashoffset: 0; stroke-linejoin: miter; stroke-miterlimit: 4; fill: rgb(255,255,255); fill-rule: nonzero; opacity: 1; visibility: hidden;" vector-effect="non-scaling-stroke"  x="-540" y="-540" rx="0" ry="0" width="1080" height="1080" />
</g>
<g transform="matrix(1 0 0 1 540 540)" id="1b10a964-3413-4d7d-9e27-b88f2d62cbd5"  >
<path style="stroke: rgb(0,0,0); stroke-width: 0; stroke-dasharray: none; stroke-linecap: butt; stroke-dashoffset: 0; stroke-linejoin: miter; stroke-miterlimit: 4; fill: rgb(255,255,255); fill-rule: nonzero; opacity: 1;" vector-effect="non-scaling-stroke"  transform=" translate(-224, -256)" d="M 50.7 58.5 L 0 160 L 208 160 L 208 32 L 93.7 32 C 75.5 32 58.9 42.3 50.7 58.5 z M 240 160 L 448 160 L 397.3 58.5 C 389.1 42.3 372.5 32 354.3 32 L 240 32 L 240 160 z M 448 192 L 0 192 L 0 416 C 0 451.3 28.7 480 64 480 L 384 480 C 419.3 480 448 451.3 448 416 L 448 192 z" stroke-linecap="round" />
</g>
</svg>