<?xml version="1.0" encoding="UTF-8" standalone="no" ?>
<!DOCTYPE svg PUBLIC "-//W3C//DTD SVG 1.1//EN" "http://www.w3.org/Graphics/SVG/1.1/DTD/svg11.dtd">
<svg xmlns="http://www.w3.org/2000/svg" xmlns:xlink="http://www.w3.org/1999/xlink" version="1.1" width="1080" height="1080" viewBox="0 0 1080 1080" xml:space="preserve">
<desc>Created with Fabric.js 5.2.4</desc>
<defs>
</defs>
<rect x="0" y="0" width="100%" height="100%" fill="transparent"></rect>
<g transform="matrix(1 0 0 1 540 540)" id="12edb5d0-9716-46dc-9b9d-7b59078a1f46"  >
</g>
<g transform="matrix(1 0 0 1 540 540)" id="d0f801f6-6b38-4a2c-aa3d-0be57fcfc1ca"  >
<rect style="stroke: none; stroke-width: 1; stroke-dasharray: none; stroke-linecap: butt; stroke-dashoffset: 0; stroke-linejoin: miter; stroke-miterlimit: 4; fill: rgb(255,255,255); fill-rule: nonzero; opacity: 1; visibility: hidden;" vector-effect="non-scaling-stroke"  x="-540" y="-540" rx="0" ry="0" width="1080" height="1080" />
</g>
<g transform="matrix(1 0 0 1 540 540)" id="a53a0f90-eec8-411f-a50a-da1ecea98006"  >
<path style="stroke: rgb(0,0,0); stroke-width: 0; stroke-dasharray: none; stroke-linecap: butt; stroke-dashoffset: 0; stroke-linejoin: miter; stroke-miterlimit: 4; fill: rgb(255,255,255); fill-rule: nonzero; opacity: 1;" vector-effect="non-scaling-stroke"  transform=" translate(-192, -256)" d="M 192 0 C 150.2 0 114.6 26.7 101.5 64 L 64 64 C 28.7 64 0 92.7 0 128 L 0 448 C 0 483.3 28.7 512 64 512 L 320 512 C 355.3 512 384 483.3 384 448 L 384 128 C 384 92.7 355.3 64 320 64 L 282.5 64 C 269.4 26.7 233.8 0 192 0 z M 192 64 C 209.67311199458538 64 224 78.3268880054146 224 96 C 224 113.67311199458538 209.6731119945854 128 192 128 C 174.32688800541462 128 160 113.67311199458538 160 96 C 160 78.32688800541462 174.32688800541462 64 192 64 z M 72 272 C 72 258.74516600406093 82.74516600406096 248 96 248 C 109.25483399593904 248 120 258.74516600406093 120 272 C 120 285.25483399593907 109.25483399593904 296 96 296 C 82.74516600406096 296 72 285.25483399593907 72 272 z M 176 256 L 304 256 C 312.8 256 320 263.2 320 272 C 320 280.8 312.8 288 304 288 L 176 288 C 167.2 288 160 280.8 160 272 C 160 263.2 167.2 256 176 256 z M 72 368 C 72 354.74516600406093 82.74516600406096 344 96 344 C 109.25483399593904 344 120 354.74516600406093 120 368 C 120 381.25483399593907 109.25483399593904 392 96 392 C 82.74516600406096 392 72 381.25483399593907 72 368 z M 160 368 C 160 359.2 167.2 352 176 352 L 304 352 C 312.8 352 320 359.2 320 368 C 320 376.8 312.8 384 304 384 L 176 384 C 167.2 384 160 376.8 160 368 z" stroke-linecap="round" />
</g>
</svg>