<?xml version="1.0" encoding="UTF-8" standalone="no" ?>
<!DOCTYPE svg PUBLIC "-//W3C//DTD SVG 1.1//EN" "http://www.w3.org/Graphics/SVG/1.1/DTD/svg11.dtd">
<svg xmlns="http://www.w3.org/2000/svg" xmlns:xlink="http://www.w3.org/1999/xlink" version="1.1" width="1080" height="1080" viewBox="0 0 1080 1080" xml:space="preserve">
<desc>Created with Fabric.js 5.2.4</desc>
<defs>
</defs>
<rect x="0" y="0" width="100%" height="100%" fill="transparent"></rect>
<g transform="matrix(1 0 0 1 540 540)" id="12edb5d0-9716-46dc-9b9d-7b59078a1f46"  >
</g>
<g transform="matrix(1 0 0 1 540 540)" id="d0f801f6-6b38-4a2c-aa3d-0be57fcfc1ca"  >
<rect style="stroke: none; stroke-width: 1; stroke-dasharray: none; stroke-linecap: butt; stroke-dashoffset: 0; stroke-linejoin: miter; stroke-miterlimit: 4; fill: rgb(255,255,255); fill-rule: nonzero; opacity: 1; visibility: hidden;" vector-effect="non-scaling-stroke"  x="-540" y="-540" rx="0" ry="0" width="1080" height="1080" />
</g>
<g transform="matrix(1 0 0 1 540 540)"  >
<path style="stroke: rgb(0,0,0); stroke-width: 0; stroke-dasharray: none; stroke-linecap: butt; stroke-dashoffset: 0; stroke-linejoin: miter; stroke-miterlimit: 4; fill: rgb(255,255,255); fill-rule: nonzero; opacity: 1;" vector-effect="non-scaling-stroke"  transform=" translate(-320, -257.24)" d="M 0 488 L 0 171.3 C 0 145.10000000000002 15.9 121.60000000000001 40.2 111.9 L 308.1 4.8 C 315.70000000000005 1.6999999999999997 324.20000000000005 1.6999999999999997 331.90000000000003 4.8 L 599.8 111.9 C 624.0999999999999 121.60000000000001 640 145.2 640 171.3 L 640 488 C 640 501.3 629.3 512 616 512 L 568 512 C 554.7 512 544 501.3 544 488 L 544 224 C 544 206.3 529.7 192 512 192 L 128 192 C 110.3 192 96 206.3 96 224 L 96 488 C 96 501.3 85.3 512 72 512 L 24 512 C 10.7 512 0 501.3 0 488 z M 488 512 L 152 512 C 138.7 512 128 501.3 128 488 L 128 432 L 512 432 L 512 488 C 512 501.3 501.3 512 488 512 z M 128 400 L 128 336 L 512 336 L 512 400 L 128 400 z M 128 304 L 128 224 L 512 224 L 512 304 L 128 304 z" stroke-linecap="round" />
</g>
</svg>